REM DIRINDEX 1\4,1\2\5,1\2\6,1\3\7,1\3\8
REM DIRNAME cjc124,folder01,folder02,folder03,folder04,folder05,folder06,folder07
TITLE ""
FILE "059_Day30_Check2_Phrases.mp3" MP3
  TRACK 01 AUDIO
    TITLE "0:"
    INDEX 01 00:00:00
  TRACK 02 AUDIO
    TITLE "4:cjc124_1917"
    INDEX 01 00:00:33
  TRACK 03 AUDIO
    TITLE "0:"
    INDEX 01 00:01:60
  TRACK 04 AUDIO
    TITLE "5:cjc124_1918"
    INDEX 01 00:02:06
  TRACK 05 AUDIO
    TITLE "0:"
    INDEX 01 00:03:61
  TRACK 06 AUDIO
    TITLE "6:cjc124_1919"
    INDEX 01 00:04:03
  TRACK 07 AUDIO
    TITLE "0:"
    INDEX 01 00:05:18
  TRACK 08 AUDIO
    TITLE "5:cjc124_1920"
    INDEX 01 00:05:54
  TRACK 09 AUDIO
    TITLE "0:"
    INDEX 01 00:07:35
  TRACK 10 AUDIO
    TITLE "6:cjc124_1921"
    INDEX 01 00:07:51
  TRACK 11 AUDIO
    TITLE "0:"
    INDEX 01 00:09:22
  TRACK 12 AUDIO
    TITLE "5:cjc124_1922"
    INDEX 01 00:09:59
  TRACK 13 AUDIO
    TITLE "0:"
    INDEX 01 00:11:74
  TRACK 14 AUDIO
    TITLE "6:cjc124_1923"
    INDEX 01 00:12:14
  TRACK 15 AUDIO
    TITLE "0:"
    INDEX 01 00:14:00
  TRACK 16 AUDIO
    TITLE "5:cjc124_1924"
    INDEX 01 00:14:37
  TRACK 17 AUDIO
    TITLE "0:"
    INDEX 01 00:16:12
  TRACK 18 AUDIO
    TITLE "6:cjc124_1925"
    INDEX 01 00:16:30
  TRACK 19 AUDIO
    TITLE "0:"
    INDEX 01 00:17:31
  TRACK 20 AUDIO
    TITLE "5:cjc124_1926"
    INDEX 01 00:17:74
  TRACK 21 AUDIO
    TITLE "0:"
    INDEX 01 00:19:71
  TRACK 22 AUDIO
    TITLE "6:cjc124_1927"
    INDEX 01 00:20:12
  TRACK 23 AUDIO
    TITLE "0:"
    INDEX 01 00:21:62
  TRACK 24 AUDIO
    TITLE "5:cjc124_1928"
    INDEX 01 00:22:23
  TRACK 25 AUDIO
    TITLE "0:"
    INDEX 01 00:24:20
  TRACK 26 AUDIO
    TITLE "6:cjc124_1929"
    INDEX 01 00:24:35
  TRACK 27 AUDIO
    TITLE "0:"
    INDEX 01 00:26:24
  TRACK 28 AUDIO
    TITLE "5:cjc124_1930"
    INDEX 01 00:26:60
  TRACK 29 AUDIO
    TITLE "0:"
    INDEX 01 00:28:55
  TRACK 30 AUDIO
    TITLE "6:cjc124_1931"
    INDEX 01 00:28:72
  TRACK 31 AUDIO
    TITLE "0:"
    INDEX 01 00:30:57
  TRACK 32 AUDIO
    TITLE "5:cjc124_1932"
    INDEX 01 00:31:18
  TRACK 33 AUDIO
    TITLE "0:"
    INDEX 01 00:33:58
  TRACK 34 AUDIO
    TITLE "6:cjc124_1933"
    INDEX 01 00:34:00
  TRACK 35 AUDIO
    TITLE "0:"
    INDEX 01 00:35:74
  TRACK 36 AUDIO
    TITLE "5:cjc124_1934"
    INDEX 01 00:36:36
  TRACK 37 AUDIO
    TITLE "0:"
    INDEX 01 00:37:67
  TRACK 38 AUDIO
    TITLE "6:cjc124_1935"
    INDEX 01 00:38:08
  TRACK 39 AUDIO
    TITLE "0:"
    INDEX 01 00:39:41
  TRACK 40 AUDIO
    TITLE "5:cjc124_1936"
    INDEX 01 00:40:03
  TRACK 41 AUDIO
    TITLE "0:"
    INDEX 01 00:41:65
  TRACK 42 AUDIO
    TITLE "6:cjc124_1937"
    INDEX 01 00:42:10
  TRACK 43 AUDIO
    TITLE "0:"
    INDEX 01 00:43:56
  TRACK 44 AUDIO
    TITLE "5:cjc124_1938"
    INDEX 01 00:44:18
  TRACK 45 AUDIO
    TITLE "0:"
    INDEX 01 00:46:11
  TRACK 46 AUDIO
    TITLE "6:cjc124_1939"
    INDEX 01 00:46:27
  TRACK 47 AUDIO
    TITLE "0:"
    INDEX 01 00:48:06
  TRACK 48 AUDIO
    TITLE "5:cjc124_1940"
    INDEX 01 00:48:44
  TRACK 49 AUDIO
    TITLE "0:"
    INDEX 01 00:50:52
  TRACK 50 AUDIO
    TITLE "6:cjc124_1941"
    INDEX 01 00:50:70
  TRACK 51 AUDIO
    TITLE "0:"
    INDEX 01 00:52:55
  TRACK 52 AUDIO
    TITLE "5:cjc124_1942"
    INDEX 01 00:53:15
  TRACK 53 AUDIO
    TITLE "0:"
    INDEX 01 00:54:58
  TRACK 54 AUDIO
    TITLE "6:cjc124_1943"
    INDEX 01 00:55:01
  TRACK 55 AUDIO
    TITLE "0:"
    INDEX 01 00:56:18
  TRACK 56 AUDIO
    TITLE "5:cjc124_1944"
    INDEX 01 00:56:55
  TRACK 57 AUDIO
    TITLE "0:"
    INDEX 01 00:58:44
  TRACK 58 AUDIO
    TITLE "6:cjc124_1945"
    INDEX 01 00:58:60
  TRACK 59 AUDIO
    TITLE "0:"
    INDEX 01 01:00:19
  TRACK 60 AUDIO
    TITLE "5:cjc124_1946"
    INDEX 01 01:00:60
  TRACK 61 AUDIO
    TITLE "0:"
    INDEX 01 01:02:26
  TRACK 62 AUDIO
    TITLE "6:cjc124_1947"
    INDEX 01 01:02:54
  TRACK 63 AUDIO
    TITLE "0:"
    INDEX 01 01:04:19
  TRACK 64 AUDIO
    TITLE "5:cjc124_1948"
    INDEX 01 01:04:52
  TRACK 65 AUDIO
    TITLE "0:"
    INDEX 01 01:07:57
  TRACK 66 AUDIO
    TITLE "6:cjc124_1949"
    INDEX 01 01:07:74
  TRACK 67 AUDIO
    TITLE "0:"
    INDEX 01 01:10:14
